<?xml version="1.0" encoding="utf-8"?>
<!-- Generator: Adobe Illustrator 25.0.1, SVG Export Plug-In . SVG Version: 6.00 Build 0)  -->
<svg version="1.1" id="Calque_1" xmlns="http://www.w3.org/2000/svg" xmlns:xlink="http://www.w3.org/1999/xlink" x="0px" y="0px"
	 viewBox="0 0 12 16" style="enable-background:new 0 0 12 16;" xml:space="preserve">
<style type="text/css">
	.st0{fill-rule:evenodd;clip-rule:evenodd;fill:#1A2228;}
</style>
<path class="st0" d="M10.9,1.1H8.7C8.7,0.5,8.2,0,7.6,0H4.4C3.8,0,3.3,0.5,3.3,1.1H1.1C0.5,1.1,0,1.7,0,2.3v1.1
	c0,0.6,0.5,1.1,1.1,1.1v10.3c0,0.6,0.5,1.1,1.1,1.1h7.6c0.6,0,1.1-0.5,1.1-1.1V4.6c0.6,0,1.1-0.5,1.1-1.1V2.3
	C12,1.7,11.5,1.1,10.9,1.1z M9.8,14.9H2.2V4.6h1.1v9.1h1.1V4.6h1.1v9.1h1.1V4.6h1.1v9.1h1.1V4.6h1.1V14.9z M10.9,3.4H1.1V2.3h9.8
	V3.4z"/>
</svg>
