<?xml version="1.0" encoding="utf-8"?>
<!-- Generator: Adobe Illustrator 25.0.1, SVG Export Plug-In . SVG Version: 6.00 Build 0)  -->
<svg version="1.1" id="Calque_1" xmlns="http://www.w3.org/2000/svg" xmlns:xlink="http://www.w3.org/1999/xlink" x="0px" y="0px"
	 viewBox="0 0 48 48" style="enable-background:new 0 0 48 48;" xml:space="preserve">
<style type="text/css">
	.st0{fill:#1A2228;}
	.st1{fill:#FFFFFF;}
	.st2{fill:#F4F1F8;}
</style>
<path class="st0" d="M41,5H7l3,34l14,4l14-4L41,5L41,5z"/>
<path class="st0" d="M24,8v31.9l11.2-3.2L37.7,8H24z"/>
<path class="st1" d="M33.1,13H24v4h4.9l-0.3,4H24v4h4.4l-0.3,4.5L24,30.9v4.2l7.9-2.6L32.6,21l0,0L33.1,13z"/>
<path class="st2" d="M24,13v4h-8.9l-0.3-4H24z M19.4,21l0.2,4H24v-4H19.4z M19.8,27h-4l0.3,5.5l7.9,2.6v-4.2l-4.1-1.4L19.8,27z"/>
</svg>
