<?xml version="1.0" encoding="utf-8"?>
<!-- Generator: Adobe Illustrator 25.0.1, SVG Export Plug-In . SVG Version: 6.00 Build 0)  -->
<svg version="1.1" id="Calque_1" xmlns="http://www.w3.org/2000/svg" xmlns:xlink="http://www.w3.org/1999/xlink" x="0px" y="0px"
	 viewBox="0 0 48 48" style="enable-background:new 0 0 48 48;" xml:space="preserve">
<style type="text/css">
	.st0{fill:#1A2228;}
	.st1{fill:#FFFFFF;}
	.st2{fill:#F4F1F8;}
</style>
<path class="st0" d="M41,5H7l3,34l14,4l14-4L41,5L41,5z"/>
<path class="st0" d="M24,8v31.9l11.2-3.2L37.7,8H24z"/>
<path class="st1" d="M24,25v-4h8.6l-0.7,11.5L24,35.1v-4.2l4.1-1.4l0.3-4.5C28.4,25,24,25,24,25z M32.9,17l0.3-4H24v4H32.9z"/>
<path class="st2" d="M24,30.9v4.2l-7.9-2.6L15.7,27h4l0.2,2.5L24,30.9z M19.1,17H24v-4h-9.1l0.7,12H24v-4h-4.6L19.1,17z"/>
</svg>
