<?xml version="1.0" encoding="utf-8"?>
<!-- Generator: Adobe Illustrator 25.0.1, SVG Export Plug-In . SVG Version: 6.00 Build 0)  -->
<svg version="1.1" id="Calque_1" xmlns="http://www.w3.org/2000/svg" xmlns:xlink="http://www.w3.org/1999/xlink" x="0px" y="0px"
	 viewBox="0 0 48 48" style="enable-background:new 0 0 48 48;" xml:space="preserve">
<style type="text/css">
	.st0{fill:#1A2228;}
	.st1{fill:url(#SVGID_1_);}
</style>
<path class="st0" d="M18.1,3C14.2,3,11,6.1,11,10s3.2,7,7.1,7h8.1V3H18.1z M24,15.9h-5.9c-3.3,0-5.9-2.6-5.9-5.9
	c0-3.2,2.7-5.9,5.9-5.9H24V15.9z"/>
<path class="st0" d="M18,17c-3.9,0-7,3.1-7,7c0,3.9,3.1,7,7,7h7V17H18z M23.9,29.9H18c-3.2,0-5.9-2.6-5.9-5.9c0-3.2,2.6-5.9,5.9-5.9
	h5.9V29.9z"/>
<path class="st0" d="M18,31c-3.9,0-7,3.1-7,7s3.1,7,7,7s7-3.1,7-7v-7H18z M23.9,38c0,3.2-2.6,5.9-5.9,5.9s-5.9-2.6-5.9-5.9
	s2.6-5.9,5.9-5.9h5.9V38z"/>
<path class="st0" d="M32,3h-7v14h7c3.9,0,7-3.1,7-7S35.9,3,32,3z M32,15.8h-5.9V4.1H32c3.2,0,5.9,2.6,5.9,5.9
	C37.9,13.2,35.3,15.8,32,15.8z"/>
<path class="st0" d="M32,17c-3.9,0-7,3.1-7,7s3.1,7,7,7s7-3.1,7-7S35.9,17,32,17z M32,29.9c-3.2,0-5.9-2.6-5.9-5.9s2.6-5.9,5.9-5.9
	s5.9,2.6,5.9,5.9S35.2,29.9,32,29.9z"/>
<linearGradient id="SVGID_1_" gradientUnits="userSpaceOnUse" x1="10.3596" y1="19.4963" x2="10.3596" y2="19.4963">
	<stop  offset="0" style="stop-color:#AE4CD5"/>
	<stop  offset="1" style="stop-color:#9331BF"/>
</linearGradient>
<path class="st1" d="M10.4,19.5"/>
</svg>
