<?xml version="1.0" encoding="utf-8"?>
<!-- Generator: Adobe Illustrator 25.0.1, SVG Export Plug-In . SVG Version: 6.00 Build 0)  -->
<svg version="1.1" id="Calque_1" xmlns="http://www.w3.org/2000/svg" xmlns:xlink="http://www.w3.org/1999/xlink" x="0px" y="0px"
	 viewBox="0 0 48 48" style="enable-background:new 0 0 48 48;" xml:space="preserve">
<style type="text/css">
	.st0{fill:#1A2228;}
</style>
<path class="st0" d="M24,0C10.8,0,0,10.8,0,24s10.8,24,24,24s24-10.8,24-24S37.2,0,24,0z M37.6,13.4c-1.2,0-2-0.6-2-1.7
	c0-0.8,0.6-1.4,0.5-1.7c0-0.6-1.1-0.7-1.3-0.7c-3.7,0.1-4.7,4.9-5.4,9L28.9,20c2.2,0.4,3.7-0.1,4.6-0.6c1.2-0.7-0.1-1.4-0.1-2.3
	c0-1.2,1.1-1.7,1.7-1.7c1,0,1.9,1,1.9,2.3c0,1.6-2.5,3.8-6.8,3.7c-0.5,0-1,0-1.4-0.1l-0.8,4.6c-0.7,3.4-1.7,7.8-5.2,11.8
	c-3,3.5-5.9,4-7.3,4.1c-2.5,0.1-4.8-1.4-4.8-3.2c0-1.7,1.4-2.9,2.4-2.9c1.4,0,2.3,1.1,2.4,2.2c0,1-0.5,1.2-0.8,1.4
	c-0.2,0.1-0.6,0.4-0.5,0.7c0,0.1,0.2,0.6,0.7,0.5c1.1,0,2.2-0.4,2.9-0.8c2.4-2,3.4-5.3,4.6-11.6l0.2-1.6c0.4-2,1.1-4.9,1.8-7.2
	c-1.7-1.3-2.8-2.8-5-3.5c-1.6-0.5-2.3-0.2-3,0.6c-0.4,0.5-0.5,1-0.5,1.4c0,1.9,3.7,5.6,3.7,7.9c0,0.2,0,0.6-0.1,0.8
	c-0.5,3-4.1,5.3-8.4,4c-3.6-1.1-4.4-3.7-4-5.2c0.4-1.2,1.6-1.7,2.5-1.3c1.1,0.4,1.4,1.7,1.1,2.8c0,0.1,0,0.1-0.1,0.4
	c-0.1,0.2-0.4,0.5-0.5,0.8c-0.2,0.7,0.8,1.3,1.6,1.6c1.7,0.5,3.2-0.4,3.6-1.7c0.4-1.2-0.1-2-0.5-2.4c0,0-3-4-3-6.1
	c0-0.5,0-1,0.2-1.4c0.2-1,1-1.9,1.8-2.6c1.9-1.4,3.7-1.6,5.8-1c2.5,0.7,3.7,2.3,5.3,3.6c0.8-2.5,1.8-4.3,3.7-6.5
	C30.1,9.5,32.3,8,34.9,8c2.5-0.1,4.4,1.1,4.4,2.9C39.5,11.9,39.1,13.4,37.6,13.4z"/>
</svg>
