<?xml version="1.0" encoding="utf-8"?>
<!-- Generator: Adobe Illustrator 25.0.1, SVG Export Plug-In . SVG Version: 6.00 Build 0)  -->
<svg version="1.1" id="Capa_1" xmlns="http://www.w3.org/2000/svg" xmlns:xlink="http://www.w3.org/1999/xlink" x="0px" y="0px"
	 viewBox="0 0 14 14" style="enable-background:new 0 0 14 14;" xml:space="preserve">
<style type="text/css">
	.st0{fill:#1A2228;}
</style>
<g>
	<path class="st0" d="M10.5,2C8.9,2,7,2.9,7,4c0-1.1-1.9-2-3.5-2S0,2.9,0,4v8c0-1.1,2-2,3.5-2S7,11.1,7,12c0-1.1,2-2,3.5-2
		s3.5,1.1,3.5,2V4C14,2.9,12.1,2,10.5,2z M6,10c0-0.7-1.4-1-2.5-1S1,9.3,1,10V4.4C1,3.6,2.4,3,3.5,3S6,3.6,6,4.4V10z M13,10
		c0-0.7-1.4-1-2.5-1S8,9.3,8,10V4.4C8,3.6,9.4,3,10.5,3S13,3.6,13,4.4V10z"/>
</g>
</svg>
