<?xml version="1.0" encoding="utf-8"?>
<!-- Generator: Adobe Illustrator 25.0.1, SVG Export Plug-In . SVG Version: 6.00 Build 0)  -->
<svg version="1.1" id="Calque_1" xmlns="http://www.w3.org/2000/svg" xmlns:xlink="http://www.w3.org/1999/xlink" x="0px" y="0px"
	 viewBox="0 0 24 24" style="enable-background:new 0 0 24 24;" xml:space="preserve">
<style type="text/css">
	.st0{fill:#1A2228;}
</style>
<path class="st0" d="M11.3,7l2.1-2.1c1.6-1.6,4.1-1.6,5.7,0s1.6,4.1,0,5.7l-4.2,4.2c-1.6,1.6-4.1,1.6-5.7,0c-0.4-0.4-0.4-1,0-1.4
	c0.4-0.4,1-0.4,1.4,0c0.8,0.8,2,0.8,2.8,0l4.2-4.2c0.8-0.8,0.8-2,0-2.8s-2-0.8-2.8,0l-1,1C13,7,12.1,6.9,11.3,7z M12.7,17l-2.1,2.1
	c-1.6,1.6-4.1,1.6-5.7,0c-1.6-1.6-1.6-4.1,0-5.7l4.2-4.2c1.6-1.6,4.1-1.6,5.7,0c0.4,0.4,0.4,1,0,1.4c-0.4,0.4-1,0.4-1.4,0
	c-0.8-0.8-2-0.8-2.8,0l-4.2,4.2c-0.8,0.8-0.8,2,0,2.8c0.8,0.8,2,0.8,2.8,0l1-1C11,17,11.9,17.1,12.7,17z"/>
</svg>
