<?xml version="1.0" encoding="utf-8"?>
<!-- Generator: Adobe Illustrator 25.0.1, SVG Export Plug-In . SVG Version: 6.00 Build 0)  -->
<svg version="1.1" id="Calque_1" xmlns="http://www.w3.org/2000/svg" xmlns:xlink="http://www.w3.org/1999/xlink" x="0px" y="0px"
	 viewBox="0 0 249 249" style="enable-background:new 0 0 249 249;" xml:space="preserve">
<style type="text/css">
	.st0{fill:url(#SVGID_1_);}
	.st1{fill:url(#SVGID_2_);}
	.st2{opacity:0.28;fill:url(#SVGID_3_);enable-background:new    ;}
	.st3{opacity:0.33;fill:url(#SVGID_4_);enable-background:new    ;}
	.st4{fill:url(#SVGID_5_);}
	.st5{opacity:0.17;fill:url(#SVGID_6_);enable-background:new    ;}
	.st6{fill:url(#SVGID_7_);}
	.st7{opacity:8.000000e-02;fill:url(#SVGID_8_);enable-background:new    ;}
	.st8{fill:#FFFFFF;}
	.st9{fill:#1A2228;}
</style>
<radialGradient id="SVGID_1_" cx="124.016" cy="198.2766" r="32.6071" gradientTransform="matrix(1 0 0 -0.237 0 267.1116)" gradientUnits="userSpaceOnUse">
	<stop  offset="0" style="stop-color:#323232;stop-opacity:0.92"/>
	<stop  offset="0.1302" style="stop-color:#363636;stop-opacity:0.7972"/>
	<stop  offset="0.2665" style="stop-color:#434343;stop-opacity:0.6687"/>
	<stop  offset="0.4055" style="stop-color:#585858;stop-opacity:0.5375"/>
	<stop  offset="0.5465" style="stop-color:#757575;stop-opacity:0.4045"/>
	<stop  offset="0.6891" style="stop-color:#9B9B9B;stop-opacity:0.2701"/>
	<stop  offset="0.8322" style="stop-color:#F4F1F8;stop-opacity:0.1351"/>
	<stop  offset="0.9755" style="stop-color:#FFFFFF;stop-opacity:0"/>
</radialGradient>
<ellipse class="st0" cx="124" cy="220.1" rx="34.1" ry="7"/>
<linearGradient id="SVGID_2_" gradientUnits="userSpaceOnUse" x1="122.474" y1="78.3075" x2="122.474" y2="233.0593" gradientTransform="matrix(1 0 0 -1 0 247.7323)">
	<stop  offset="0" style="stop-color:#1A2228"/>
	<stop  offset="0.1601" style="stop-color:#1A2228"/>
	<stop  offset="0.3296" style="stop-color:#1A2228"/>
	<stop  offset="0.5135" style="stop-color:#1A2228"/>
	<stop  offset="0.7208" style="stop-color:#1A2228"/>
	<stop  offset="1" style="stop-color:#1A2228"/>
</linearGradient>
<path class="st1" d="M112,204.3h22.8c-1.4-29.6-10-123.9-24.5-182.5C112.8,62.1,115.7,195.8,112,204.3z"/>
<linearGradient id="SVGID_3_" gradientUnits="userSpaceOnUse" x1="115.7787" y1="43.1353" x2="115.7787" y2="225.6353" gradientTransform="matrix(1 0 0 -1 0 247.7323)">
	<stop  offset="0" style="stop-color:#1A2228"/>
	<stop  offset="0.1446" style="stop-color:#1A2228;stop-opacity:0.9176"/>
	<stop  offset="0.3443" style="stop-color:#1A2228;stop-opacity:0.8037"/>
	<stop  offset="0.5761" style="stop-color:#1A2228;stop-opacity:0.6716"/>
	<stop  offset="0.83" style="stop-color:#1A2228;stop-opacity:0.5269"/>
	<stop  offset="1" style="stop-color:#FFFFFF;stop-opacity:0.43"/>
</linearGradient>
<path class="st2" d="M112,204.6h9.3c1.1-66.7-11-182.5-11-182.5C112.8,62.3,115.7,196.1,112,204.6z"/>
<linearGradient id="SVGID_4_" gradientUnits="userSpaceOnUse" x1="119.3434" y1="52.2489" x2="119.3434" y2="214.976" gradientTransform="matrix(1 0 0 -1 0 247.7323)">
	<stop  offset="0" style="stop-color:#1A2228"/>
	<stop  offset="0.8221" style="stop-color:#FFFFFF;stop-opacity:0.43"/>
</linearGradient>
<path class="st3" d="M112.8,199.3l9.7,2.8c0,0,2.4-32.1,5.8-34.5c1.9-12.3-13.5-124.6-17.6-143.7c-0.2-0.7-0.3-1.4-0.5-2.1
	C112.6,58.5,115.2,173,112.8,199.3L112.8,199.3z"/>
<g>
	
		<linearGradient id="SVGID_5_" gradientUnits="userSpaceOnUse" x1="107.1032" y1="28.954" x2="107.1032" y2="84.6005" gradientTransform="matrix(1 0 0 -1 0 247.7323)">
		<stop  offset="0" style="stop-color:#1A2228"/>
		<stop  offset="0.5093" style="stop-color:#1A2228"/>
		<stop  offset="1" style="stop-color:#1A2228"/>
	</linearGradient>
	<path class="st4" d="M111.3,221.6l14.4,0.6c0.3-27.9-9.8-76.1-37.2-94.9C102.5,144.7,112.6,166,111.3,221.6z"/>
	
		<linearGradient id="SVGID_6_" gradientUnits="userSpaceOnUse" x1="105.2166" y1="38.2733" x2="106.0731" y2="83.0943" gradientTransform="matrix(1 0 0 -1 0 247.7323)">
		<stop  offset="0" style="stop-color:#1A2228"/>
		<stop  offset="0.8221" style="stop-color:#FFFFFF;stop-opacity:0"/>
	</linearGradient>
	<path class="st5" d="M90.4,129.9c13,17,22.2,38.8,21,91.9l9.8,0.4C121.6,211.5,121.9,154.9,90.4,129.9z"/>
</g>
<g>
	
		<linearGradient id="SVGID_7_" gradientUnits="userSpaceOnUse" x1="141.8837" y1="27.1884" x2="141.8837" y2="77.2695" gradientTransform="matrix(1 0 0 -1 0 247.7323)">
		<stop  offset="0" style="stop-color:#1A2228"/>
		<stop  offset="0.1416" style="stop-color:#1A2228"/>
		<stop  offset="0.3448" style="stop-color:#1A2228"/>
		<stop  offset="0.5533" style="stop-color:#1A2228"/>
		<stop  offset="0.7683" style="stop-color:#1A2228"/>
		<stop  offset="1" style="stop-color:#1A2228"/>
	</linearGradient>
	<path class="st6" d="M138.7,222.5c0.4,2-14.4,3.4-14.9,3s-10.8-68.9,37.4-62C135.1,164.7,133.1,200.5,138.7,222.5z"/>
	
		<linearGradient id="SVGID_8_" gradientUnits="userSpaceOnUse" x1="129.596" y1="23.3671" x2="129.596" y2="80.1537" gradientTransform="matrix(1 0 0 -1 0 247.7323)">
		<stop  offset="0" style="stop-color:#FFFFFF"/>
		<stop  offset="1" style="stop-color:#FFFFFF;stop-opacity:0"/>
	</linearGradient>
	<path class="st7" d="M123.8,225.5c0.3,0.2,5.3-0.1,9.4-0.8c-0.6-5.8-3.5-37.3,3.5-55.9C117.2,184.2,123.4,225.2,123.8,225.5
		L123.8,225.5z"/>
</g>
<g>
	
		<image style="overflow:visible;opacity:0.44;enable-background:new    ;" width="28" height="27" xlink:href="166912A9.png"  transform="matrix(0.963 0 0 0.963 105.1185 176.966)">
	</image>
	<circle class="st8" cx="118.7" cy="190" r="3.8"/>
	<g>
		
			<image style="overflow:visible;opacity:0.44;enable-background:new    ;" width="27" height="27" xlink:href="166912AB.png"  transform="matrix(0.963 0 0 0.963 115.1 176.966)">
		</image>
		<circle class="st8" cx="128.3" cy="190" r="3.8"/>
	</g>
</g>
<g>
	<path class="st9" d="M91.7,212.7l5.4,9.2h3 M106.7,226h6.5l-9.6-25.9 M144.3,224.3h4.2l3.1-20 M155.2,219.1h3.6l1.8-7.4"/>
</g>
</svg>
